Coordinates
version=1
nRows=24
nColumns=24
inDegrees=yes

Units are S.I. units (second, meters, Newtons, ...)
Angles are in degrees.

endheader
time	pelvis_tilt	pelvis_list	pelvis_rotation	pelvis_tx	pelvis_ty	pelvis_tz	hip_flexion_r	hip_adduction_r	hip_rotation_r	knee_angle_r	ankle_angle_r	subtalar_angle_r	mtp_angle_r	hip_flexion_l	hip_adduction_l	hip_rotation_l	knee_angle_l	ankle_angle_l	subtalar_angle_l	mtp_angle_l	lumbar_extension	lumbar_bending	lumbar_rotation
      1.42066667	     -2.37169433	      2.28328811	    -14.15566851	      0.96304562	      0.98217226	      0.31635811	    -15.57265852	     -4.39202480	      9.84818809	     -9.36040247	     13.74829467	     -2.27485761	      6.30899300	     27.08429795	     -3.61346627	    -15.29590709	      1.30595873	      4.34655761	    -10.45379479	      4.21516655	      0.67292075	     -1.85422865	     11.77514439
      1.42483333	     -2.35199242	      2.38039018	    -14.21739702	      0.96911749	      0.98163147	      0.31576885	    -15.73692088	     -4.61224618	      9.79145700	     -9.70902051	     13.58711129	     -2.23573136	      6.33448234	     27.08881315	     -3.51970200	    -15.26138442	      0.88892296	      4.43415909	    -10.58091079	      4.21951622	      0.70637904	     -2.00364502	     11.86768500
      1.42900000	     -2.32767361	      2.50153351	    -14.28115418	      0.97523581	      0.98111033	      0.31512775	    -15.86958900	     -4.86400193	      9.66936528	    -10.12181800	     13.47425038	     -2.03622679	      6.46210421	     27.08309037	     -3.39016763	    -15.19365719	      0.46522416	      4.42520850	    -10.78120823	      4.24483447	      0.72722604	     -2.17694890	     12.06046166
      1.43316667	     -2.31098547	      2.62589587	    -14.33103476	      0.98141569	      0.98061989	      0.31448437	    -16.01282890	     -5.10650501	      9.62329926	    -10.50172998	     13.26035121	     -2.05947682	      6.49863929	     27.10140190	     -3.25563341	    -15.14945878	     -0.02737123	      4.41703399	    -10.92780377	      4.25502985	      0.78636527	     -2.35420970	     12.08783328
      1.43733333	     -2.29103651	      2.78761850	    -14.37241651	      0.98765420	      0.98014074	      0.31378771	    -16.12057264	     -5.39276469	      9.47382654	    -10.94681094	     13.09967265	     -1.88000695	      6.74050753	     27.09810775	     -3.06252385	    -15.02336313	     -0.49223973	      4.27772982	    -11.23466353	      4.31996066	      0.84231601	     -2.57475981	     12.22595388
      1.44150000	     -2.28689825	      2.94821081	    -14.41063472	      0.99391132	      0.97967016	      0.31305744	    -16.19579818	     -5.66883678	      9.35553826	    -11.42461520	     12.87598887	     -1.81714216	      7.38634563	     27.11631807	     -2.86580784	    -14.84225469	     -0.98391552	      4.09664826	    -11.62354143	      4.51058540	      0.92166071	     -2.78206815	     12.30251708
      1.44566667	     -2.24969303	      3.11850254	    -14.42683487	      1.00025799	      0.97928140	      0.31232557	    -16.33871006	     -5.95164006	      9.28248614	    -11.84246693	     12.58488002	     -1.89252907	      7.44260731	     27.13690696	     -2.65670207	    -14.81327251	     -1.57685323	      3.98163171	    -11.70957680	      4.52862804	      0.98254860	     -3.01909654	     12.32621688
      1.44983333	     -2.22713243	      3.33098733	    -14.45114397	      1.00664346	      0.97888578	      0.31154188	    -16.40809522	     -6.28439288	      9.11203745	    -12.35432470	     12.35340446	     -1.73215069	      7.98696692	     27.14799718	     -2.39126379	    -14.69916698	     -2.10240848	      3.67536943	    -12.01656619	      4.69978708	      1.05914184	     -3.28823641	     12.46191580
      1.45400000	     -2.15811044	      3.53211396	    -14.44635845	      1.01307059	      0.97859237	      0.31072942	    -16.55432908	     -6.60054002	      8.99609921	    -12.81802036	     11.93188891	     -1.89343290	     12.09804125	     27.12302613	     -2.11282782	    -14.57244004	     -2.66745241	      3.40212519	    -12.29007241	      6.13270215	      1.08123783	     -3.57342820	     12.48139401
      1.45816667	     -2.15069857	      3.73455707	    -14.42220331	      1.01952916	      0.97824226	      0.30988104	    -16.61178262	     -6.89193606	      8.86321098	    -13.34269313	     11.56766091	     -1.97566047	     12.10835745	     27.19933013	     -1.85354323	    -14.52249044	     -3.31923257	      3.15313033	    -12.34009903	      6.13944813	      1.19016335	     -3.82165294	     12.50548354
      1.46233333	     -2.16507782	      3.97123045	    -14.40107217	      1.02601442	      0.97788657	      0.30901455	    -16.61625661	     -7.21407955	      8.72281696	    -13.90736351	     11.18666043	     -1.98717021	     12.15607101	     27.29846999	     -1.56047951	    -14.44019658	     -3.96078488	      2.82709635	    -12.44833463	      6.16069253	      1.32651396	     -4.12509657	     12.54888581
      1.46650000	     -2.16439562	      4.21511459	    -14.36685701	      1.03251647	      0.97757108	      0.30807421	    -16.59515458	     -7.54734125	      8.50106938	    -14.55622825	     10.85822547	     -1.90442151	     12.45730559	     27.36914534	     -1.23238978	    -14.27714602	     -4.56786985	      2.42441249	    -12.79381613	      6.27810748	      1.44933580	     -4.41750389	     12.63499176
      1.47066667	     -2.14010699	      4.46306451	    -14.32175765	      1.03908526	      0.97734709	      0.30715684	    -16.62081564	     -7.87675095	      8.35046410	    -15.16122696	     10.37582210	     -2.00702734	     12.52778075	     27.43171023	     -0.90650142	    -14.23831457	     -5.22174315	      2.05478871	    -12.84140532	      6.30463508	      1.54741794	     -4.73312771	     12.65044540
      1.47483333	     -2.13084043	      4.72297209	    -14.25441836	      1.04569378	      0.97711924	      0.30619167	    -16.60768915	     -8.20818764	      8.15533442	    -15.81595200	      9.89060498	     -2.07038190	     12.64126357	     27.51824912	     -0.55945338	    -14.15706045	     -5.88617158	      1.65206348	    -12.94922224	      6.34487593	      1.67204333	     -5.06140905	     12.67264891
      1.47900000	     -2.15281621	      4.98456640	    -14.20834521	      1.05219725	      0.97688319	      0.30517865	    -16.47508946	     -8.54333346	      7.92418591	    -16.61789112	      9.48006971	     -2.00241696	     13.06561813	     27.62949972	     -0.21460011	    -14.03253657	     -6.52115318	      1.15739416	    -13.25094448	      6.48663164	      1.82365546	     -5.35180374	     12.70909623
      1.48316667	     -2.06871147	      5.25444295	    -14.11915651	      1.05883450	      0.97683418	      0.30415737	    -16.51439800	     -8.89444537	      7.68736679	    -17.30933185	      8.83583746	     -2.18830290	     17.79772837	     27.62989318	      0.18034411	    -13.91800303	     -7.16991171	      0.74161302	    -13.42524233	      7.98389965	      1.85350258	     -5.71109057	     12.74879223
      1.48733333	     -2.04088976	      5.50557116	    -14.00780567	      1.06544914	      0.97673517	      0.30310117	    -16.45745868	     -9.19952678	      7.44375870	    -18.09299652	      8.25164785	     -2.29596346	     17.80654421	     27.72302004	      0.53302097	    -13.87816822	     -7.90812874	      0.42217637	    -13.40506463	      7.99068629	      1.95753985	     -6.01977291	     12.75779785
      1.49150000	     -2.07349874	      5.78117374	    -13.92684428	      1.07201952	      0.97658380	      0.30205029	    -16.25984642	     -9.52607476	      7.21444770	    -18.99332940	      7.70230293	     -2.28315803	     17.89286023	     27.87528791	      0.88387764	    -13.84356756	     -8.62777491	      0.05916853	    -13.41144263	      8.01845466	      2.11534886	     -6.34387859	     12.76544526
      1.49566667	     -2.05878157	      6.05620455	    -13.81708779	      1.07863313	      0.97652861	      0.30096111	    -16.11259391	     -9.85446793	      6.94712756	    -19.90209691	      7.10350632	     -2.30862008	     18.06244891	     27.97374844	      1.26045226	    -13.80564639	     -9.34857528	     -0.26959383	    -13.45134289	      8.06084178	      2.22816383	     -6.68126110	     12.78779849
      1.49983333	     -2.00911361	      6.32038555	    -13.70707883	      1.08523513	      0.97657430	      0.29988804	    -15.98673167	    -10.17259811	      6.69970675	    -20.83421439	      6.41206393	     -2.41186951	     18.13076856	     28.02195148	      1.63499906	    -13.76547789	    -10.05325003	     -0.54937159	    -13.43916471	      8.07667807	      2.29267625	     -7.02162239	     12.80672116
      1.50400000	     -1.97509540	      6.58354221	    -13.59769108	      1.09180128	      0.97662433	      0.29878610	    -15.79741150	    -10.48770952	      6.44174897	    -21.84626240	      5.73239803	     -2.47900847	     18.21519088	     28.08675778	      2.00433608	    -13.73730763	    -10.76072162	     -0.82312475	    -13.42290435	      8.09165975	      2.36868772	     -7.34780175	     12.82195766
      1.50816667	     -1.94697007	      6.84874990	    -13.48776982	      1.09834698	      0.97669738	      0.29767386	    -15.56014419	    -10.80440611	      6.17595255	    -22.92686585	      5.04714153	     -2.52086314	     18.32539310	     28.14339404	      2.37604891	    -13.71753929	    -11.44171978	     -1.07575188	    -13.39404948	      8.10887470	      2.45602654	     -7.67512755	     12.84812562
      1.51233333	     -1.94018269	      7.10205881	    -13.38455970	      1.10484641	      0.97675288	      0.29654066	    -15.24027544	    -11.11139874	      5.89232857	    -24.11418665	      4.40156915	     -2.51271539	     18.56594451	     28.22159279	      2.72563046	    -13.71863013	    -12.13138232	     -1.30690390	    -13.36027018	      8.14100630	      2.56570069	     -7.94851344	     12.88187309
      1.51650000	     -1.92610668	      7.34898668	    -13.27702702	      1.11130766	      0.97685334	      0.29541381	    -14.91195610	    -11.40710428	      5.63856753	    -25.31803597	      3.72396015	     -2.53547294	     19.02773016	     28.29725247	      3.06636488	    -13.75312487	    -12.84373827	     -1.50112138	    -13.32581966	      8.19259052	      2.65371410	     -8.25511174	     12.93990459
